<?xml version="1.0" encoding="UTF-8"?>
<svg version="1.1" xmlns="http://www.w3.org/2000/svg" width="1254" height="1254">
<path d="M0 0 C413.82 0 827.64 0 1254 0 C1254 413.82 1254 827.64 1254 1254 C840.18 1254 426.36 1254 0 1254 C0 840.18 0 426.36 0 0 Z " fill="#FDFDFD" transform="translate(0,0)"/>
<path d="M0 0 C2.44792154 0.01078272 4.89511707 -0.0000081 7.34301758 -0.01269531 C16.84830624 -0.02129884 25.87078198 0.6155599 35.2512207 2.26074219 C36.06308838 2.38545898 36.87495605 2.51017578 37.71142578 2.63867188 C65.1160654 6.91461654 95.09748764 19.74577122 112.69262695 41.80371094 C117.76357741 49.79776567 117.50177319 60.31500162 115.59887695 69.36230469 C111.5492723 81.42421726 103.55286642 93.05591709 92.2512207 99.26074219 C84.08008696 102.77781645 74.55884604 103.91571319 65.8840332 101.63964844 C63.56639725 100.65574638 61.43840084 99.51005948 59.2512207 98.26074219 C56.92111601 96.98347909 54.58902236 95.71125135 52.2512207 94.44824219 C51.30049683 93.93366455 51.30049683 93.93366455 50.33056641 93.40869141 C45.48467301 90.82509575 40.56143812 88.51824613 35.5012207 86.38574219 C34.8412207 86.09981201 34.1812207 85.81388184 33.5012207 85.51928711 C23.10330849 81.25803642 12.55516373 80.92015618 1.4387207 80.94824219 C0.17479492 80.93212891 -1.08913086 80.91601562 -2.39135742 80.89941406 C-14.8471827 80.89303627 -26.42302717 83.025253 -37.7487793 88.26074219 C-38.69237305 88.68097656 -39.6359668 89.10121094 -40.6081543 89.53417969 C-48.41812827 93.19636956 -55.06240076 97.83559455 -61.7487793 103.26074219 C-62.56475586 103.92203125 -63.38073242 104.58332031 -64.22143555 105.26464844 C-87.16364254 124.74388079 -100.23285195 156.66604926 -102.7487793 186.26074219 C-103.55658444 203.36321025 -102.94594397 219.64347406 -98.7487793 236.26074219 C-98.48323242 237.42992187 -98.21768555 238.59910156 -97.9440918 239.80371094 C-94.37413339 253.48855151 -86.22953698 266.86874603 -76.7487793 277.26074219 C-76.14936523 277.95167969 -75.54995117 278.64261719 -74.93237305 279.35449219 C-62.75112688 292.578392 -45.80024836 298.48796595 -28.7487793 302.26074219 C-27.95213867 302.45796875 -27.15549805 302.65519531 -26.3347168 302.85839844 C-15.06951761 304.61114091 -2.82796754 303.55550809 8.2512207 301.26074219 C9.68594727 301.00357422 9.68594727 301.00357422 11.1496582 300.74121094 C25.35323947 297.7900647 39.12927055 290.51927739 48.0480957 278.92480469 C52.22450394 272.53614061 54.31391183 265.59271114 56.2512207 258.26074219 C56.42032959 257.68050293 56.58943848 257.10026367 56.76367188 256.50244141 C57.41360162 253.51413147 57.60026464 250.56011446 57.8137207 247.51074219 C57.89750977 246.34027344 57.98129883 245.16980469 58.06762695 243.96386719 C58.12821289 243.07183594 58.18879883 242.17980469 58.2512207 241.26074219 C57.46513428 241.29103516 56.67904785 241.32132813 55.86914062 241.35253906 C40.45277274 241.93030564 25.0276206 242.40510355 9.60049438 242.54785156 C8.08865916 242.56463785 6.57688386 242.58844357 5.0652771 242.61962891 C-6.14226219 242.84120604 -14.75472177 241.7658425 -23.2487793 233.95996094 C-30.99692309 225.1827668 -31.38245905 213.44410533 -30.88354492 202.34082031 C-30.29078805 193.19174692 -27.84360225 186.91152389 -21.3034668 180.38183594 C-7.52745825 168.94395728 15.16260524 168.47487052 32.2512207 166.26074219 C32.9961377 166.16019531 33.74105469 166.05964844 34.50854492 165.95605469 C51.69718528 163.63971617 68.86895113 163.15029391 86.19619751 163.03057861 C87.87997855 163.01750625 89.56373037 162.99967628 91.24740601 162.97674561 C104.34295853 162.81146399 119.12740601 162.83880119 129.3762207 172.20214844 C136.38768654 179.61316472 140.3227706 187.64403583 140.41235352 197.9296875 C140.42182007 198.83049545 140.43128662 199.73130341 140.44104004 200.65940857 C140.44543091 201.62612991 140.44982178 202.59285126 140.4543457 203.58886719 C140.4613147 204.60235733 140.46828369 205.61584747 140.47546387 206.66004944 C140.49289858 209.94365559 140.49919146 213.22709158 140.5012207 216.51074219 C140.50222778 217.6247641 140.50323486 218.73878601 140.50427246 219.88656616 C140.49444486 235.88777338 140.13228227 251.47976519 137.2512207 267.26074219 C137.0960498 268.15905762 136.94087891 269.05737305 136.78100586 269.98291016 C130.96923731 303.25987644 116.13190983 332.44947396 88.07543945 352.53417969 C79.56840875 358.27810725 70.54357193 362.93161619 61.2512207 367.26074219 C60.64246094 367.54578613 60.03370117 367.83083008 59.40649414 368.12451172 C47.62636884 373.577082 35.66197984 376.86158496 23.0012207 379.44824219 C22.18572754 379.61533691 21.37023437 379.78243164 20.5300293 379.95458984 C11.62891357 381.69888518 2.77414685 382.414535 -6.2878418 382.49902344 C-7.16358856 382.50881729 -8.03933533 382.51861115 -8.94161987 382.52870178 C-34.78782373 382.75846806 -58.27789661 381.28883483 -82.7487793 372.26074219 C-83.47645508 371.99390625 -84.20413086 371.72707031 -84.95385742 371.45214844 C-124.08390604 356.83520445 -156.53666828 327.99311026 -174.7487793 290.26074219 C-198.54102415 237.91349331 -199.95488778 177.53339846 -180.18334961 123.65258789 C-174.28698814 108.39866286 -166.48115529 93.42920359 -156.7487793 80.26074219 C-155.98178711 79.21144531 -155.21479492 78.16214844 -154.42456055 77.08105469 C-137.77287002 54.6748574 -117.14774131 36.80172523 -92.7487793 23.26074219 C-92.13486328 22.91946289 -91.52094727 22.57818359 -90.88842773 22.2265625 C-76.13014498 14.15622996 -60.26180187 8.37013727 -43.9362793 4.38574219 C-43.1626001 4.19471924 -42.3889209 4.00369629 -41.59179688 3.80688477 C-27.87262512 0.68083602 -14.02060448 -0.07323671 0 0 Z " fill="#279979" transform="translate(388.748779296875,653.7392578125)"/>
<path d="M0 0 C3.41798859 -0.00437145 6.83467949 -0.04083983 10.25244141 -0.07861328 C42.66039302 -0.24278317 76.988704 6.61778318 102.18603516 28.37060547 C103.12576172 29.15048828 104.06548828 29.93037109 105.03369141 30.73388672 C126.66830956 49.39262892 137.65373737 76.53299844 141.18603516 104.37060547 C141.44665503 109.263429 141.480098 114.15899629 141.49853516 119.05810547 C141.5014859 119.74568939 141.50443665 120.43327332 141.50747681 121.14169312 C141.51897706 132.94627551 140.25452715 143.95749496 137.18603516 155.37060547 C136.863125 156.75699219 136.863125 156.75699219 136.53369141 158.17138672 C128.29469967 190.21191012 105.0739964 216.39392475 77.18603516 232.99560547 C55.41362227 245.58709316 30.41718527 252.01031123 5.62353516 255.12060547 C4.15484985 255.31203125 4.15484985 255.31203125 2.65649414 255.50732422 C-6.17374055 256.53943898 -14.93959785 256.48944976 -23.81396484 256.37060547 C-23.78890869 257.0548761 -23.76385254 257.73914673 -23.73803711 258.44415283 C-21.61719909 316.64817184 -21.61719909 316.64817184 -21.56396484 338.62060547 C-21.55896973 339.33510864 -21.55397461 340.04961182 -21.54882812 340.7857666 C-21.47678321 353.09608116 -22.27027254 365.61694855 -30.93896484 375.18310547 C-41.38744319 384.80729021 -57.28262577 384.94503055 -70.66162109 384.67919922 C-81.27788761 384.21240115 -90.30932518 381.06364613 -97.81396484 373.37060547 C-104.62514115 364.9849864 -106.79167105 354.61425489 -107.10385132 344.03153992 C-107.14295529 342.77325788 -107.18205927 341.51497583 -107.22234821 340.21856403 C-107.26126651 338.8326419 -107.30010333 337.44671748 -107.33886719 336.06079102 C-107.38311609 334.58590006 -107.42772078 333.11101975 -107.47265148 331.63614941 C-107.59432089 327.60745532 -107.71084601 323.57862672 -107.82644963 319.54975462 C-107.95067589 315.2498915 -108.07952571 310.9501666 -108.20774841 306.65042114 C-108.45500507 298.33208333 -108.69766541 290.01361763 -108.93851143 281.69509196 C-109.13276403 274.98755353 -109.32859966 268.28006305 -109.52548218 261.57260132 C-110.30014548 235.17227276 -111.06250169 208.77160449 -111.81396484 182.37060547 C-111.83721423 181.55405046 -111.86046362 180.73749546 -111.88441753 179.89619637 C-112.44611589 160.16278191 -112.99701105 140.42910607 -113.53101349 120.69491959 C-113.62547431 117.21954899 -113.72123195 113.74421629 -113.81732178 110.26889038 C-114.19284308 96.63695928 -114.53860832 83.0049498 -114.81396484 69.37060547 C-114.83031731 68.59333855 -114.84666977 67.81607162 -114.86351776 67.01525116 C-114.96267913 62.22092976 -115.02980326 57.42745631 -115.07568359 52.63232422 C-115.09637405 51.53169144 -115.11706451 50.43105865 -115.13838196 49.29707336 C-115.17512535 38.26746933 -113.2533953 27.85594225 -105.81396484 19.37060547 C-97.81078906 11.67723004 -88.27157257 9.12410078 -77.50146484 7.76513672 C-74.85016166 7.51893703 -74.85016166 7.51893703 -72.81396484 6.37060547 C-70.71703992 6.03087814 -68.61240258 5.73831193 -66.50537109 5.46826172 C-65.19890625 5.30003906 -63.89244141 5.13181641 -62.54638672 4.95849609 C-61.85859131 4.87188721 -61.1707959 4.78527832 -60.4621582 4.69604492 C-58.44278244 4.441466 -56.42424263 4.18100079 -54.40576172 3.91943359 C-50.93641164 3.47305841 -47.46465321 3.04966668 -43.99139404 2.6348877 C-42.54397233 2.45920904 -41.09721019 2.27800485 -39.65118408 2.09118652 C-26.43311357 0.38717509 -13.32114416 -0.00189787 0 0 Z " fill="#289979" transform="translate(673.81396484375,652.62939453125)"/>
<path d="M0 0 C0.95706848 0.00015106 1.91413696 0.00030212 2.90020752 0.00045776 C28.88059235 0.08081616 51.42941057 4.51356923 72.4375 20.5625 C73.46875 21.325625 74.5 22.08875 75.5625 22.875 C88.84611889 35.29229592 96.92805915 52.04616566 97.67578125 70.23828125 C98.25461313 94.7486496 90.93262211 116.17904741 74.4375 134.5625 C72.31819357 136.75316355 70.17364202 138.8996343 67.96875 141.00390625 C66.33917459 142.50263391 66.33917459 142.50263391 65.4375 144.5625 C66.26737427 144.71054077 66.26737427 144.71054077 67.11401367 144.86157227 C72.82153182 145.98831872 77.63483824 147.74932072 82.75 150.5 C83.48275146 150.8933252 84.21550293 151.28665039 84.97045898 151.69189453 C102.17795853 161.32207306 113.86828578 177.42234274 119.3125 196.3125 C122.32528831 211.03570954 121.99344204 228.22163699 117.4375 242.5625 C117.24414062 243.18882324 117.05078125 243.81514648 116.8515625 244.46044922 C107.53861331 273.95864091 85.1043787 294.26227715 58.48779297 308.61376953 C54.22594483 310.82575828 49.88069906 312.75379287 45.4375 314.5625 C44.73560547 314.8507666 44.03371094 315.1390332 43.31054688 315.43603516 C20.09864116 324.75227465 -4.51904576 328.74324974 -29.41088867 328.80273438 C-31.85955813 328.8124388 -34.30738577 328.84354946 -36.75585938 328.875 C-46.10238305 328.93756602 -54.52398672 328.21965552 -63.5625 325.5625 C-64.56313477 325.28269287 -65.56376953 325.00288574 -66.59472656 324.71459961 C-75.06767899 322.23488211 -82.07216105 316.72942631 -87 309.375 C-91.75528868 299.13669091 -92.00093996 287.54466747 -91.93481445 276.47802734 C-91.93725103 275.02340435 -91.94097866 273.56878305 -91.94587708 272.11416626 C-91.95520325 268.19418229 -91.94591359 264.27445195 -91.93254495 260.3544879 C-91.92105665 256.18282858 -91.92535322 252.0111787 -91.92729187 247.83950806 C-91.92817316 240.79709876 -91.91716018 233.75478593 -91.89868164 226.71240234 C-91.88011116 219.597136 -91.8727769 212.48198809 -91.87817383 205.36669922 C-91.92751733 138.13300834 -91.92751733 138.13300834 -90.60546875 104.9140625 C-90.56248468 103.83154583 -90.51950062 102.74902916 -90.475214 101.63370895 C-90.35291144 98.65468189 -90.2226583 95.67618509 -90.08666992 92.69775391 C-90.04906492 91.84678257 -90.01145992 90.99581123 -89.97271538 90.11905289 C-89.76136051 85.86270484 -89.36950238 81.75787929 -88.5625 77.5625 C-90.109375 77.6553125 -90.109375 77.6553125 -91.6875 77.75 C-97.05343106 77.49035817 -100.03407692 75.8299728 -104.125 72.4375 C-111.42580189 63.82629778 -112.7088805 56.60682558 -111.80615234 45.52880859 C-110.71596622 36.73085364 -106.03046325 30.15513825 -99.26953125 24.71875 C-85.52773331 14.66273662 -67.93247263 9.56602115 -51.5 5.8125 C-50.68829346 5.62631104 -49.87658691 5.44012207 -49.0402832 5.24829102 C-46.22196392 4.63687481 -43.39756571 4.09129719 -40.5625 3.5625 C-39.5790712 3.37447311 -39.5790712 3.37447311 -38.57577515 3.18264771 C-25.68974949 0.76435336 -13.09877668 -0.03972605 0 0 Z " fill="#020C1D" transform="translate(274.5625,297.4375)"/>
<path d="M0 0 C1.45980286 -0.02490257 1.45980286 -0.02490257 2.94909668 -0.05030823 C11.78311014 -0.14890503 19.77592137 1.84770202 26.68359375 7.52734375 C33.8016397 14.51856483 35.43419008 23.05559995 35.703125 32.7578125 C35.70834786 34.63020829 35.70308118 36.50266175 35.6875 38.375 C35.69523437 39.31214844 35.70296875 40.24929688 35.7109375 41.21484375 C35.67701689 53.34146244 32.10969423 65.4039756 23.4375 74.25 C14.02474875 81.36828022 2.36034327 81.58628055 -9.0078125 82.3203125 C-10.25883759 82.40626678 -11.50986267 82.49222107 -12.79879761 82.58078003 C-16.08963496 82.80572178 -19.38077991 83.0250601 -22.67218018 83.24157715 C-26.04479961 83.46485908 -29.41690425 83.69565721 -32.7890625 83.92578125 C-39.37976049 84.37403776 -45.97092121 84.81489804 -52.5625 85.25 C-53.57716842 105.30859137 -54.03091125 125.37737773 -54.5 145.45428467 C-54.6845878 153.34198821 -54.87310459 161.22959814 -55.0625 169.1171875 C-55.083125 169.98036402 -55.10375 170.84354053 -55.125 171.73287392 C-55.39488319 182.9914948 -55.70522302 194.24771884 -56.0625 205.50390625 C-56.467524 218.34626199 -56.78260591 231.18947999 -57.0625 244.03515625 C-57.083125 244.98145401 -57.10375 245.92775177 -57.125 246.90272522 C-57.29405181 254.68699147 -57.45969503 262.47132971 -57.625 270.25567627 C-57.86733392 281.65838637 -58.11492327 293.06090913 -58.38406372 304.46302223 C-58.50081191 309.44063412 -58.60585616 314.41824664 -58.69830322 319.39636707 C-58.75474021 322.30204162 -58.82205453 325.20739102 -58.89233398 328.11276054 C-58.93527737 330.02226308 -58.96506822 331.93204805 -58.99414062 333.84181213 C-59.33772862 347.02877176 -60.7797061 361.64575331 -69.98046875 371.875 C-80.92112372 381.38391493 -97.56952192 382.2990291 -111.40234375 381.45703125 C-121.29279738 380.50912159 -130.28368717 377.0872672 -137.5625 370.25 C-146.43427122 359.47449454 -146.71789045 349.00952282 -146.73046875 335.57421875 C-146.73446843 334.19594264 -146.73865939 332.81766708 -146.74302673 331.43939209 C-146.75449992 326.93874986 -146.75266597 322.43815226 -146.75 317.9375 C-146.75005612 316.37338257 -146.75011719 314.80926514 -146.75018311 313.24514771 C-146.73599459 267.78063084 -145.16099402 222.35717394 -143.02734375 176.9453125 C-142.97898125 175.87648079 -142.97898125 175.87648079 -142.92964172 174.78605652 C-142.72883879 170.66139143 -142.42473576 166.55585827 -142.06469727 162.44189453 C-141.55346484 156.4587979 -141.27447664 150.48463869 -141.0625 144.484375 C-141.0015918 142.86876678 -141.0015918 142.86876678 -140.93945312 141.22052002 C-140.81122454 137.81377011 -140.68651079 134.40690585 -140.5625 131 C-140.05226409 117.07016105 -139.5224044 103.15697857 -138.5625 89.25 C-139.34875259 89.25444122 -140.13500519 89.25888245 -140.94508362 89.26345825 C-148.37454868 89.30362314 -155.80396069 89.33402908 -163.2335062 89.35362434 C-167.05260941 89.36403729 -170.87162248 89.37815072 -174.69067383 89.40087891 C-178.38002845 89.42269646 -182.06929667 89.43458733 -185.75871086 89.43975449 C-187.16243791 89.4434343 -188.56616052 89.45061992 -189.96985054 89.46146011 C-191.94412706 89.47609284 -193.91849153 89.47681792 -195.89282227 89.47705078 C-197.01423111 89.481492 -198.13563995 89.48593323 -199.29103088 89.49050903 C-207.59559653 88.87998117 -214.11056521 86.0613633 -219.75 80 C-227.37285876 71.02422928 -227.75649504 61.89700965 -227.8125 50.5 C-227.833125 49.46617187 -227.85375 48.43234375 -227.875 47.3671875 C-227.93313474 35.82744221 -225.15078113 26.2489328 -217.12109375 17.71875 C-208.47383269 9.99040769 -197.84361353 8.14333844 -186.6484375 7.5390625 C-185.7659584 7.48615051 -184.88347931 7.43323853 -183.97425842 7.37872314 C-180.96244224 7.20195444 -177.95010062 7.03782436 -174.9375 6.875 C-173.33662033 6.7851181 -173.33662033 6.7851181 -171.70339966 6.69342041 C-146.14749197 5.26376125 -120.57247848 4.20675033 -95 3.125 C-93.46868061 3.05995647 -93.46868061 3.05995647 -91.90642548 2.99359894 C-61.27893751 1.69326129 -30.65277464 0.50109043 0 0 Z " fill="#289979" transform="translate(1048.5625,646.75)"/>
<path d="M0 0 C6.27082528 5.28069497 8.96870289 10.95953316 10 19 C10.0280796 22.15378194 9.86227349 25.28918299 9.6875 28.4375 C9.63432617 29.61022461 9.63432617 29.61022461 9.58007812 30.80664062 C9.34325925 35.44758361 9.00177782 40.07235022 8.56518555 44.69848633 C7.03576185 60.9846552 6.22441754 77.27664772 5.53128433 93.61468124 C5.43648271 95.83634004 5.33970764 98.0579044 5.24227905 100.27944946 C4.31126337 121.51395768 3.45633041 142.7491216 3 164 C3.66 164 4.32 164 5 164 C5.23589844 163.43410156 5.47179687 162.86820313 5.71484375 162.28515625 C7.29414316 159.47697948 9.22686006 157.65617519 11.5625 155.4375 C15.93094115 151.16280222 19.77688123 146.68938377 23.5859375 141.91796875 C26.27870303 138.6631211 29.11164789 135.5803642 32 132.5 C36.49993203 127.69487981 40.73106013 122.74835577 44.85546875 117.61328125 C47.70692714 114.13855327 50.73385268 110.84024792 53.76171875 107.51953125 C56.02847158 104.96795083 58.17540087 102.34828468 60.3125 99.6875 C63.82609023 95.37396803 67.41559678 91.1454625 71.125 87 C71.84296753 86.17181763 71.84296753 86.17181763 72.57543945 85.3269043 C76.66419111 80.82558387 80.86243142 78.53467153 86.95703125 77.49609375 C94.75495093 77.33608172 99.99352706 78.94304055 106 84 C112.82092747 91.25157666 113.47271036 97.38782839 113.2734375 107.17578125 C112.59356523 116.68428058 107.65341042 123.60529273 102 131 C101.10474609 132.18529297 101.10474609 132.18529297 100.19140625 133.39453125 C95.39677963 139.56474721 90.14762198 145.26278287 84.81640625 150.96484375 C82.61206015 153.32627951 80.47393289 155.73130194 78.375 158.1875 C74.9215964 162.18839441 71.16025834 165.85369966 67.40234375 169.56640625 C65.36285627 171.63242365 63.444922 173.73005549 61.5625 175.9375 C55.64638615 182.83729074 49.19643782 189.44029713 42 195 C42.54980798 198.77099239 43.49053029 201.11290425 45.7734375 204.15234375 C46.34537842 204.92175293 46.91731934 205.69116211 47.5065918 206.48388672 C48.43145386 207.69842529 48.43145386 207.69842529 49.375 208.9375 C50.32403198 210.20231201 50.32403198 210.20231201 51.29223633 211.49267578 C53.18346807 214.00399523 55.08844903 216.50412324 57 219 C57.7727124 220.01102783 57.7727124 220.01102783 58.56103516 221.04248047 C65.11466891 229.58260739 71.97881468 237.84173593 79 246 C79.61359375 246.71542969 80.2271875 247.43085937 80.859375 248.16796875 C94.83427803 264.56422022 94.83427803 264.56422022 110.64453125 279.1015625 C115.18712005 282.76275347 117.57452879 286.39001989 118.5234375 292.2109375 C118.92805984 300.93921942 117.31981469 307.97459586 112 315 C103.59473147 322.71711789 96.26589801 325.7108193 84.91796875 325.37109375 C68.69583015 323.83460006 55.91552003 311.15879542 45.76171875 299.41015625 C43.46842947 296.63621309 41.22873046 293.82604515 39 291 C38.15030837 289.94094965 37.30002833 288.88237117 36.44921875 287.82421875 C31.32523281 281.41736078 26.38339355 274.88780958 21.5625 268.25 C21.08586914 267.59700928 20.60923828 266.94401855 20.11816406 266.27124023 C14.17213699 258.01406067 8.61880223 249.48128227 3 241 C2.99635437 241.80464691 2.99270874 242.60929382 2.98895264 243.43832397 C2.95092899 251.05843749 2.89391521 258.67806983 2.81609726 266.29787254 C2.77675512 270.21438535 2.74450232 274.13067779 2.72900391 278.04736328 C2.71374894 281.83427321 2.67914992 285.62057676 2.63169098 289.40721512 C2.61696748 290.844679 2.60896422 292.28222949 2.60811615 293.71976852 C2.59617831 303.81786648 1.39662812 311.70525616 -4.125 320.3125 C-12.39916569 328.04704619 -21.79872923 329.45590335 -32.67578125 329.28515625 C-40.34881262 328.95414969 -46.35910503 326.15891977 -52 321 C-53.984375 317.9765625 -53.984375 317.9765625 -55.75 314.625 C-56.34296875 313.52414062 -56.9359375 312.42328125 -57.546875 311.2890625 C-60.36508902 304.91020173 -60.14852304 298.51159535 -60.14526367 291.66113281 C-60.14856564 290.62670831 -60.1518676 289.5922838 -60.15526962 288.5265131 C-60.16465676 285.08537326 -60.16656657 281.64427674 -60.16796875 278.203125 C-60.17204089 275.76751165 -60.17632269 273.33189865 -60.18080139 270.89628601 C-60.19147825 263.69084846 -60.19167681 256.48543102 -60.18834877 249.27998877 C-60.18750091 247.25217657 -60.18704813 245.22436462 -60.18669128 243.19655228 C-60.17318478 181.02299071 -59.87259643 118.95243613 -54 57 C-53.91882935 56.13438446 -53.83765869 55.26876892 -53.75402832 54.37692261 C-52.82878311 44.64192911 -51.73434523 35.02412148 -49.75 25.4375 C-49.57082031 24.46232422 -49.39164063 23.48714844 -49.20703125 22.48242188 C-47.33226893 13.31079054 -43.39789841 4.99257204 -35.828125 -0.81640625 C-24.75175995 -7.9876426 -11.16244158 -6.26663387 0 0 Z " fill="#020C1D" transform="translate(800,268)"/>
<path d="M0 0 C1.02480469 0.268125 2.04960938 0.53625 3.10546875 0.8125 C19.49350096 5.42343521 32.91205075 14.47841092 41.6015625 29.29296875 C46.67058418 39.10534871 48.18057086 47.35752869 48.1875 58.3125 C48.19974609 59.31990234 48.21199219 60.32730469 48.22460938 61.36523438 C48.25340728 76.10016371 43.15305515 89.47908927 34 101 C33.23429687 102.01126953 33.23429687 102.01126953 32.453125 103.04296875 C14.99079654 124.69798499 -15.32854887 133.53283315 -41.90869141 136.80224609 C-47.26685957 137.30891387 -52.62671255 137.2332456 -58 137 C-54.58089236 146.99960125 -49.7038283 156.30473653 -40 161.4375 C-38.67653147 161.98291379 -37.34287623 162.50428983 -36 163 C-35.360625 163.29519531 -34.72125 163.59039063 -34.0625 163.89453125 C-19.99071304 169.73112471 -0.95377718 165.66014076 12.640625 160.5546875 C18.752958 157.72595665 23.8007863 153.55445854 29.03515625 149.375 C34.71764302 145.26774057 40.14550738 145.12989515 47 146 C52.22167216 147.70891089 54.81637302 150.57829585 58 155 C61.39027633 161.81611499 61.00018662 170.57402449 59.34765625 177.88671875 C53.85830182 192.89409544 40.08379308 203.33068797 26.0546875 209.890625 C-2.83500092 222.90715439 -33.67933308 226.84105697 -63.9675293 215.97973633 C-85.95208332 207.56916011 -101.72223257 190.34469757 -111.57421875 169.39453125 C-117.90518131 154.32163684 -120.51886925 138.96781411 -120.33618164 122.73876953 C-120.31251333 120.50126035 -120.31566286 118.26494757 -120.32226562 116.02734375 C-120.2987705 102.27655959 -118.9710657 89.20659497 -114.4375 76.125 C-113.91349609 74.58936401 -113.91349609 74.58936401 -113.37890625 73.02270508 C-103.20314131 44.19813689 -84.08617964 21.20649088 -57 7 C-56.22011719 6.58878906 -55.44023438 6.17757813 -54.63671875 5.75390625 C-38.32810155 -2.13934162 -17.56494472 -4.9305108 0 0 Z " fill="#020C1D" transform="translate(1035,362)"/>
<path d="M0 0 C11.84330287 9.5410977 19.76160473 23.37819003 24.38671875 37.6328125 C24.82854492 38.92348633 24.82854492 38.92348633 25.27929688 40.24023438 C29.09174824 51.78039615 30.02909199 63.01610961 29.95996094 75.09277344 C29.94923311 77.31733442 29.95992222 79.54108822 29.97265625 81.765625 C29.9853332 93.24328583 28.70060857 103.9716729 25.26171875 114.9453125 C24.8095295 116.41525194 24.35770398 117.88530332 23.90625 119.35546875 C23.69307129 120.04398926 23.47989258 120.73250977 23.26025391 121.44189453 C22.80359783 122.9708379 22.40474009 124.5169512 22.0234375 126.06640625 C16.8465981 146.94984682 -0.53725062 166.93752693 -18.36328125 178.0703125 C-26.48256068 182.92621935 -35.25187054 185.71630942 -44.30078125 188.3203125 C-44.91872559 188.50368164 -45.53666992 188.68705078 -46.17333984 188.87597656 C-51.08405794 189.90162574 -56.24252028 189.54876744 -61.23828125 189.5703125 C-62.39908203 189.5909375 -63.55988281 189.6115625 -64.75585938 189.6328125 C-75.99342981 189.68284064 -86.49317221 187.92503415 -96.48828125 182.6328125 C-97.16117188 182.28468506 -97.8340625 181.93655762 -98.52734375 181.57788086 C-118.76582584 170.78127219 -129.52744706 152.50607958 -136.30078125 131.3203125 C-136.51250977 130.68351563 -136.72423828 130.04671875 -136.94238281 129.390625 C-146.35706791 100.14691216 -139.82714269 63.9941728 -126.42578125 36.8828125 C-120.73665803 25.86377922 -113.8703071 16.2855891 -105.30078125 7.3203125 C-104.68847656 6.63324219 -104.07617188 5.94617188 -103.4453125 5.23828125 C-75.19164758 -25.3045932 -31.531493 -23.01959591 0 0 Z " fill="#020C1D" transform="translate(693.30078125,407.6796875)"/>
<path d="M0 0 C96.36 0 192.72 0 292 0 C292 0.33 292 0.66 292 1 C290.70449219 1.17015625 289.40898437 1.3403125 288.07421875 1.515625 C253.82072377 6.13578835 221.38542372 15.44224802 190 30 C189.27409668 30.33467285 188.54819336 30.6693457 187.80029297 31.01416016 C160.8438998 43.57819472 137.44723213 60.70645104 115 80 C114.21367188 80.67160156 113.42734375 81.34320313 112.6171875 82.03515625 C106.60999607 87.29929787 100.97001565 92.92765327 95.3125 98.5625 C94.50409668 99.36623047 93.69569336 100.16996094 92.86279297 100.99804688 C88.03594852 105.83779468 83.4270994 110.79315352 79 116 C78.45206787 116.63591064 77.90413574 117.27182129 77.33959961 117.92700195 C68.33957682 128.42196616 60.41130513 139.33667795 53 151 C52.30648437 152.0725 51.61296875 153.145 50.8984375 154.25 C37.8577524 174.85750238 26.2739823 196.82693035 18.65429688 220.02832031 C18.03698934 221.8885351 17.38669119 223.73770829 16.734375 225.5859375 C8.55601516 249.03401982 3.86711306 273.36749098 1 298 C0.67 298 0.34 298 0 298 C0 199.66 0 101.32 0 0 Z " fill="#000000" transform="translate(0,0)"/>
<path d="M0 0 C96.03 0 192.06 0 291 0 C291 97.35 291 194.7 291 295 C290.67 295 290.34 295 290 295 C289.72736328 293.05673828 289.72736328 293.05673828 289.44921875 291.07421875 C288.92200266 287.3293503 288.38364351 283.58624435 287.83984375 279.84375 C287.32579948 276.30499756 286.83572743 272.76530259 286.37890625 269.21875 C284.60463469 256.06992862 280.97304718 243.63732089 277 231 C276.74847168 230.18112305 276.49694336 229.36224609 276.23779297 228.51855469 C270.82702486 210.94378486 263.44145149 194.13182251 254.94873047 177.83691406 C254.03956201 176.07659922 253.16159598 174.30027431 252.28515625 172.5234375 C243.32547163 154.8393335 231.73688543 138.17358786 219 123 C218.289646 122.14752686 218.289646 122.14752686 217.56494141 121.27783203 C204.75371788 105.95245335 191.26781579 90.92311551 176 78 C175.0925 77.20335938 174.185 76.40671875 173.25 75.5859375 C161.05634422 64.95456946 147.88107865 55.31409298 134 47 C133.37174316 46.6169873 132.74348633 46.23397461 132.09619141 45.83935547 C99.75318087 26.18781119 65.05578117 12.57824735 28 5 C27.17177734 4.8232373 26.34355469 4.64647461 25.49023438 4.46435547 C19.8037586 3.27434241 14.15315982 2.4614688 8.375 1.875 C7.56160156 1.78863281 6.74820313 1.70226562 5.91015625 1.61328125 C3.94053614 1.40473324 1.97032756 1.20175467 0 1 C0 0.67 0 0.34 0 0 Z " fill="#010000" transform="translate(963,0)"/>
<path d="M0 0 C0.33 0 0.66 0 1 0 C1.12004395 0.86874756 1.24008789 1.73749512 1.36376953 2.63256836 C3.98563567 21.35930278 7.06677567 39.71613556 12 58 C12.2170459 58.83644043 12.4340918 59.67288086 12.65771484 60.53466797 C18.30050642 82.12127341 27.39804474 103.38739633 38 123 C38.56750977 124.06686035 38.56750977 124.06686035 39.14648438 125.15527344 C44.85419481 135.8583794 51.06846894 146.04967984 58 156 C58.40718262 156.59264648 58.81436523 157.18529297 59.23388672 157.79589844 C67.8813687 170.37093571 77.71677607 181.73908416 88 193 C88.85207031 193.94488281 89.70414062 194.88976563 90.58203125 195.86328125 C99.56929008 205.80186481 108.68622376 215.46037438 119.234375 223.76953125 C121.48797857 225.58705617 123.64758948 227.45113717 125.80859375 229.375 C129.8112011 232.89430731 133.98263972 236.08349374 138.3125 239.1875 C139.46830566 240.01725342 139.46830566 240.01725342 140.64746094 240.86376953 C152.4363544 249.23783414 164.50994986 257.13420996 177.578125 263.3671875 C179.95418878 264.50097136 182.28263751 265.65736431 184.609375 266.8828125 C202.1949983 276.0885871 220.85382033 282.84667395 240 288 C240.69689941 288.18900879 241.39379883 288.37801758 242.11181641 288.57275391 C255.21496135 292.05706365 268.60645259 293.99137155 282 296 C282 296.33 282 296.66 282 297 C188.94 297 95.88 297 0 297 C0 198.99 0 100.98 0 0 Z " fill="#010000" transform="translate(0,957)"/>
<path d="M0 0 C0.33 0 0.66 0 1 0 C1 96.69 1 193.38 1 293 C-91.4 293 -183.8 293 -279 293 C-279 292.67 -279 292.34 -279 292 C-277.97398682 291.84180786 -277.97398682 291.84180786 -276.92724609 291.68041992 C-260.57895215 289.14721783 -244.6089173 286.30007483 -228.625 282 C-227.6966333 281.75072754 -226.7682666 281.50145508 -225.81176758 281.24462891 C-211.34559957 277.27004892 -197.82314777 270.93270916 -184.3125 264.5 C-183.3630249 264.04947266 -182.4135498 263.59894531 -181.43530273 263.13476562 C-162.08748906 253.85504601 -143.63718118 242.57684661 -127 229 C-125.63588289 227.90176441 -124.27126865 226.8041461 -122.90625 225.70703125 C-118.91995558 222.49240893 -114.94302994 219.26761308 -111 216 C-110.3409668 215.45408203 -109.68193359 214.90816406 -109.00292969 214.34570312 C-108.37032227 213.81396484 -107.73771484 213.28222656 -107.0859375 212.734375 C-106.51665527 212.25709961 -105.94737305 211.77982422 -105.36083984 211.28808594 C-103.86900444 210.02313784 -103.86900444 210.02313784 -103 208 C-102.34 208 -101.68 208 -101 208 C-101 207.34 -101 206.68 -101 206 C-99.37614443 204.26470337 -97.72270628 202.63381588 -96 201 C-86.38218202 191.67744339 -77.20280626 182.39674323 -69.21777344 171.62353516 C-68.04066696 170.05421718 -66.82169927 168.51656928 -65.6015625 166.98046875 C-60.30553421 160.30473082 -55.44244256 153.38377797 -50.6875 146.3125 C-50.10057373 145.4455249 -49.51364746 144.5785498 -48.90893555 143.68530273 C-45.63243489 138.75628168 -42.76931178 133.79082641 -40.19506836 128.4621582 C-39.00276224 126.00569095 -37.74830097 123.59354568 -36.46484375 121.18359375 C-36.04783203 120.39919922 -35.63082031 119.61480469 -35.20117188 118.80664062 C-34.35623636 117.22254978 -33.50987319 115.63921964 -32.66210938 114.05664062 C-29.86900692 108.79521507 -27.37092232 103.4629757 -25 98 C-24.53078125 96.97777344 -24.0615625 95.95554687 -23.578125 94.90234375 C-10.15017648 64.92642337 -2.86204254 32.61222163 0 0 Z " fill="#010000" transform="translate(1253,961)"/>
<path d="M0 0 C6.5150286 7.13550751 8.40350577 13.98710104 8.28466797 23.47119141 C7.80691013 32.48062482 4.29932627 39.71175704 -2.25 45.9375 C-8.5761783 51.31885946 -15.67254258 52.23704793 -23.6875 52.3125 C-31.24805886 52.5611882 -37.52993238 53.4192377 -44.375 56.875 C-45.23351562 57.2978125 -46.09203125 57.720625 -46.9765625 58.15625 C-60.08571712 65.28509541 -67.29394446 78.01838765 -71.73046875 91.890625 C-75.12081455 103.55978957 -75.50617267 114.85001613 -75.35846901 126.93018913 C-75.33144678 129.26535154 -75.31381935 131.60041401 -75.29899597 133.9356842 C-75.25662392 140.56822329 -75.20875692 147.20056522 -75.12817383 153.83276367 C-75.07931721 157.90972249 -75.05056636 161.9864171 -75.03442955 166.06363106 C-75.02461912 167.60365805 -75.0075443 169.14365861 -74.98264503 170.68351555 C-74.80570627 181.86977683 -75.60054969 193.0775957 -83.375 201.875 C-93.12432314 209.07423328 -102.35829306 211.00731632 -114.375 209.875 C-121.32711686 208.30026053 -127.91689468 205.6217764 -132.375 199.875 C-135.8793428 193.97054742 -137.58620826 188.18929512 -137.97387695 181.34814453 C-138.0283485 180.39209666 -138.0283485 180.39209666 -138.08392048 179.4167347 C-138.58665499 169.86720575 -138.73902746 160.30199175 -138.91796875 150.7421875 C-138.948826 149.16197123 -138.948826 149.16197123 -138.98030663 147.54983139 C-139.43075918 124.24471337 -139.62821823 100.94006479 -139.67016602 77.63085938 C-139.67921806 73.14212269 -139.7006088 68.65367654 -139.73168945 64.16503906 C-139.77015485 58.60366277 -139.78892328 53.04254915 -139.79344749 47.48104477 C-139.79827057 45.4023763 -139.80975958 43.32371072 -139.82848549 41.245121 C-140.04473596 15.8103496 -140.04473596 15.8103496 -131.08984375 6.30859375 C-123.22673526 -0.26489331 -114.10761048 -0.76269613 -104.30126953 -0.30859375 C-97.54677032 0.33518108 -92.68526026 3.80410558 -88.375 8.875 C-87.60349609 9.71804688 -87.60349609 9.71804688 -86.81640625 10.578125 C-84.85661041 13.7010517 -84.62603226 16.4818089 -84.1875 20.125 C-84.02894531 21.38828125 -83.87039063 22.6515625 -83.70703125 23.953125 C-83.59746094 24.91734375 -83.48789062 25.8815625 -83.375 26.875 C-82.818125 26.2459375 -82.26125 25.616875 -81.6875 24.96875 C-79.26756033 22.25449334 -76.82415417 19.56290819 -74.375 16.875 C-73.74078125 16.16085937 -73.1065625 15.44671875 -72.453125 14.7109375 C-64.03030946 5.67620801 -52.92474631 -0.06120037 -41.375 -4.125 C-40.32699219 -4.49431641 -40.32699219 -4.49431641 -39.2578125 -4.87109375 C-26.19617806 -8.55579607 -11.43076823 -7.19715037 0 0 Z " fill="#020C1D" transform="translate(553.375,398.125)"/>
<path d="M0 0 C8.60531966 8.11270744 12.89329607 18.08584787 13.46875 29.8203125 C13.7107138 38.32265151 13.69939124 46.36154733 10.1875 54.25 C9.58421875 55.69052734 9.58421875 55.69052734 8.96875 57.16015625 C5.52731532 64.721753 1.07699961 70.43359701 -4.8125 76.25 C-5.35390625 76.81332031 -5.8953125 77.37664062 -6.453125 77.95703125 C-21.74109494 92.58869945 -48.37029928 97.55146764 -68.58203125 97.41796875 C-70.8125 97.25 -70.8125 97.25 -71.8125 96.25 C-71.99794262 93.2862052 -72.11980959 90.34231842 -72.20141602 87.375 C-72.23082275 86.44321426 -72.26022949 85.51142853 -72.29052734 84.55140686 C-72.38716201 81.45106192 -72.47684492 78.35055672 -72.56640625 75.25 C-72.63185545 73.09821425 -72.69769204 70.94644025 -72.76390076 68.79467773 C-72.9020882 64.27189243 -73.03712114 59.74902801 -73.16967773 55.22607422 C-73.33917566 49.44360283 -73.51397696 43.66130864 -73.69085789 37.87905884 C-73.85955637 32.35692801 -74.02558438 26.83471783 -74.19140625 21.3125 C-74.22310976 20.26392822 -74.25481327 19.21535645 -74.28747749 18.13500977 C-74.37743782 15.14343302 -74.4655055 12.15180664 -74.55297852 9.16015625 C-74.57945969 8.28706314 -74.60594086 7.41397003 -74.63322449 6.51441956 C-74.78928136 1.09050226 -74.83518028 -4.32380279 -74.8125 -9.75 C-53.25303083 -20.92603791 -18.16255047 -14.93967667 0 0 Z " fill="#FBFCFC" transform="translate(718.8125,740.75)"/>
<path d="M0 0 C1.13501953 0.54333984 1.13501953 0.54333984 2.29296875 1.09765625 C8.92730124 4.76956635 14.76520852 10.66013984 17 18 C17.68235716 25.91357067 17.96770247 33.9178644 14 41 C13.54753906 41.84820313 13.09507812 42.69640625 12.62890625 43.5703125 C6.33401077 54.40900544 -2.88221909 62.35210256 -14 68 C-14.97839844 68.50144531 -15.95679688 69.00289062 -16.96484375 69.51953125 C-31.38953458 76.29450494 -49.03503791 80.54118516 -65 80 C-65.66 79.67 -66.32 79.34 -67 79 C-67 53.92 -67 28.84 -67 3 C-47.75245097 -5.24894958 -19.46085425 -9.46660374 0 0 Z " fill="#FBFBFB" transform="translate(314,488)"/>
<path d="M0 0 C6.87915194 3.37467831 10.92169203 9.14376862 14 16 C20.33371006 38.80656916 17.5316003 62.88859985 7 84 C1.66414101 92.6799435 -3.90389001 99.3411008 -14 102 C-19.28539381 102.54676488 -22.56840939 101.95439374 -27 99 C-34.53942365 91.9873483 -38.60486635 83.8391418 -39.12451172 73.52978516 C-39.761272 50.82394177 -37.60283233 28.50480372 -23 10 C-15.89525684 2.65441809 -10.45132771 -1.32504947 0 0 Z " fill="#FBFBFB" transform="translate(652,442)"/>
<path d="M0 0 C4.8628827 4.6135041 5.70727685 10.0604343 6.1875 16.5234375 C6.53190374 30.51483958 0.44189381 41.8952335 -9 52 C-20.8633001 63.28139772 -42.02616985 77 -59 77 C-59.01030746 76.17917938 -59.02061493 75.35835876 -59.03123474 74.51266479 C-59.12985474 66.71740897 -59.23245099 58.92221977 -59.33933926 51.12707329 C-59.3941351 47.1210353 -59.44747757 43.11498971 -59.49731445 39.10888672 C-59.54560759 35.23142307 -59.59795871 31.35403222 -59.65294075 27.47665787 C-59.67307482 26.00897193 -59.69182916 24.54126628 -59.70907402 23.07354355 C-59.82059422 13.67938878 -60.2196999 4.36348657 -61 -5 C-41.8204101 -13.27354859 -16.68402969 -13.53142111 0 0 Z " fill="#FBFBFB" transform="translate(305,362)"/>
<path d="M0 0 C4.19844865 4.08796316 5.56117693 6.75539027 5.8125 12.625 C5.57779591 19.91060604 3.14367184 24.63891441 -1.75 29.9375 C-13.71625432 41.06889937 -33.2334085 47.90123391 -49.625 47.3125 C-48.55639637 31.28344552 -41.37644218 16.89659411 -29.609375 5.9296875 C-21.03137366 -1.06104588 -10.7207935 -4.99071422 0 0 Z " fill="#FAFAFA" transform="translate(1025.625,410.6875)"/>
<path d="M0 0 C6.01014029 4.7106505 6.01014029 4.7106505 6.62451172 8.98144531 C6.77184841 15.58160754 5.4177241 19.84129131 2.125 25.5 C1.46201904 26.69616943 1.46201904 26.69616943 0.78564453 27.91650391 C-0.17508215 29.64196504 -1.14583788 31.36187243 -2.12548828 33.07666016 C-3.75992048 35.93934338 -5.36429139 38.81746975 -6.96484375 41.69921875 C-10.15950151 47.43056356 -13.40815664 53.129245 -16.6875 58.8125 C-17.11401855 59.55483887 -17.54053711 60.29717773 -17.97998047 61.06201172 C-19.05679171 62.92456777 -20.14847304 64.77698369 -21.25 66.625 C-21.82878906 67.60082031 -22.40757813 68.57664062 -23.00390625 69.58203125 C-24.79295749 71.95221283 -25.91016357 72.8434099 -28.6875 73.8125 C-32.54350245 74.22564312 -34.78721339 74.36652253 -38.125 72.3125 C-40.32130287 68.79841542 -40.20007525 65.80407678 -39.6875 61.8125 C-38.50882023 57.4439876 -36.95709426 53.23673506 -35.375 49 C-34.93003174 47.78618652 -34.48506348 46.57237305 -34.02661133 45.32177734 C-32.60827232 41.47455265 -31.15397952 37.64160073 -29.6875 33.8125 C-29.44418945 33.17640808 -29.20087891 32.54031616 -28.95019531 31.88494873 C-27.28957878 27.55656719 -25.59185272 23.24395614 -23.875 18.9375 C-23.2102063 17.24596802 -23.2102063 17.24596802 -22.53198242 15.52026367 C-19.93076513 9.12481159 -17.52233205 3.62471017 -11.8125 -0.5625 C-7.60840896 -1.79899736 -4.01406157 -1.77365511 0 0 Z " fill="#2D9A7B" transform="translate(1067.6875,241.1875)"/>
<path d="M0 0 C5.01289239 2.45915476 6.90173676 4.90846739 9 10 C9.37823273 12.68145336 9.62240234 15.17475155 9.73046875 17.86328125 C9.770616 18.61353073 9.81076324 19.36378021 9.85212708 20.13676453 C9.93459949 21.72408362 10.01070577 23.31174482 10.08081055 24.8996582 C10.18553144 27.26797994 10.308612 29.63472915 10.43554688 32.00195312 C10.63608215 35.88902985 10.79358422 39.77596426 10.92181396 43.66607666 C10.97446852 45.23786227 11.03322316 46.80945401 11.09771729 48.38079834 C11.18749618 50.68480649 11.24810852 52.98784674 11.30078125 55.29296875 C11.33125046 55.98127274 11.36171967 56.66957672 11.39311218 57.3787384 C11.45922438 62.38218252 10.13604719 65.15727891 7 69 C4.11138291 70.44430855 2.20352299 70.37688506 -1 70 C-5.46713173 66.39245271 -6.80059007 63.49761176 -7.9375 57.9375 C-8.16228027 56.86991455 -8.16228027 56.86991455 -8.39160156 55.78076172 C-8.73575632 54.14382048 -9.07263298 52.50533902 -9.40380859 50.86572266 C-10.08716357 47.5810295 -10.8326101 44.31321042 -11.58203125 41.04296875 C-12.13876874 38.57048079 -12.6947568 36.09782396 -13.25 33.625 C-13.52062256 32.44929443 -13.79124512 31.27358887 -14.07006836 30.06225586 C-17.74056963 13.30561962 -17.74056963 13.30561962 -14.8125 6.0625 C-10.39444909 1.03506276 -6.88080562 -1.32219402 0 0 Z " fill="#2A9A7A" transform="translate(993,253)"/>
<path d="M0 0 C3.76435105 2.20740438 5.46160413 5.02940072 6.59765625 9.1875 C7.00799969 13.48491496 6.12323155 16.53750546 3.5625 20 C-4.41787211 28.12635453 -16.81175172 32.78057147 -27.23046875 36.87109375 C-30.12772664 38.05206347 -32.88597132 39.42142283 -35.6875 40.8125 C-40.47572641 43.00219543 -44.76620013 44.19308126 -50 43 C-52.0625 41.4375 -52.0625 41.4375 -53 39 C-53.4901893 35.14851261 -53.61737568 32.93461658 -51.44921875 29.65234375 C-48.37325118 26.32127201 -45.00170481 23.70482945 -41.375 21 C-40.63950928 20.44473633 -39.90401855 19.88947266 -39.14624023 19.31738281 C-11.14524794 -1.72693295 -11.14524794 -1.72693295 0 0 Z " fill="#2C9B7C" transform="translate(1117,294)"/>
<path d="M0 0 C0.33 0 0.66 0 1 0 C1.06627114 12.78921191 0.86014927 25.5622142 0.5625 38.34765625 C0.51749286 40.34117768 0.47265552 42.33470295 0.42797852 44.32823181 C0.31129498 49.51482002 0.19234183 54.70135365 0.07287598 59.88787842 C-0.04917172 65.20451744 -0.16901769 70.52120607 -0.2890625 75.83789062 C-0.52391666 86.22530944 -0.76117444 96.61267179 -1 107 C-1.33 107 -1.66 107 -2 107 C-2.33 88.19 -2.66 69.38 -3 50 C-2.67 50 -2.34 50 -2 50 C-2 36.14 -2 22.28 -2 8 C-1.67 8 -1.34 8 -1 8 C-0.67 5.36 -0.34 2.72 0 0 Z " fill="#54B298" transform="translate(991,852)"/>
<path d="M0 0 C0.33 0 0.66 0 1 0 C1.1749342 18.68835554 0.67045651 37.32707301 0 56 C-0.33 56 -0.66 56 -1 56 C-1.1936259 48.66795612 -1.37102724 41.33564886 -1.53710938 34.00292969 C-1.59553753 31.50804747 -1.65769086 29.01324962 -1.72363281 26.51855469 C-1.81772754 22.93440102 -1.89845748 19.35015831 -1.9765625 15.765625 C-2.00875885 14.64883362 -2.0409552 13.53204224 -2.0741272 12.38140869 C-2.09429901 11.34063171 -2.11447083 10.29985474 -2.13525391 9.22753906 C-2.15746002 8.31264709 -2.17966614 7.39775513 -2.20254517 6.45513916 C-1.98678643 3.83983249 -1.32779895 2.24071948 0 0 Z " fill="#60B59D" transform="translate(993,780)"/>
<path d="M0 0 C0.33 0 0.66 0 1 0 C1.33 6.6 1.66 13.2 2 20 C1.34 20 0.68 20 0 20 C0.33 27.26 0.66 34.52 1 42 C0.34 42 -0.32 42 -1 42 C-1 46.95 -1 51.9 -1 57 C-1.33 57 -1.66 57 -2 57 C-2.37414088 37.93960094 -1.21872526 19.01016934 0 0 Z " fill="#4DAD92" transform="translate(907,803)"/>
<path d="M0 0 C-0.99 0 -1.98 0 -3 0 C-3.33 0.66 -3.66 1.32 -4 2 C-5.32 1.67 -6.64 1.34 -8 1 C-8.33 1.99 -8.66 2.98 -9 4 C-11.72923388 4.0270817 -14.45819637 4.04687847 -17.1875 4.0625 C-17.95642578 4.07087891 -18.72535156 4.07925781 -19.51757812 4.08789062 C-23.48526789 4.10491934 -27.12571234 3.98604115 -31 3 C-31 2.01 -31 1.02 -31 0 C-29.72125 0.01160156 -28.4425 0.02320313 -27.125 0.03515625 C-25.41666814 0.04454269 -23.70833468 0.05364197 -22 0.0625 C-21.16082031 0.07087891 -20.32164062 0.07925781 -19.45703125 0.08789062 C-15.43049534 0.10349735 -11.52525466 0.00615986 -7.53125 -0.53125 C-4.49680633 -0.93405226 -2.80957959 -1.05359235 0 0 Z " fill="#1E202A" transform="translate(1036,528)"/>
<path d="M0 0 C0.33 0 0.66 0 1 0 C1.33 13.2 1.66 26.4 2 40 C1.34 40 0.68 40 0 40 C0 47.92 0 55.84 0 64 C-0.33 64 -0.66 64 -1 64 C-1.15305155 42.64342189 -0.74071968 21.34297075 0 0 Z " fill="#5BB19C" transform="translate(904,860)"/>
<path d="M0 0 C2.09789686 1.69320355 2.93031254 2.55719827 3.35644531 5.26489258 C3.34709961 6.13267334 3.33775391 7.0004541 3.328125 7.89453125 C3.32039062 9.32829102 3.32039062 9.32829102 3.3125 10.79101562 C3.291875 11.78810547 3.27125 12.78519531 3.25 13.8125 C3.24484375 14.79798828 3.2396875 15.78347656 3.234375 16.79882812 C3.18245321 21.63079989 2.99954247 26.25217328 2 31 C-0.14503684 27.51153178 -0.23354662 24.75594122 -0.1953125 20.703125 C-0.18886719 19.49785156 -0.18242188 18.29257812 -0.17578125 17.05078125 C-0.15064453 15.16939453 -0.15064453 15.16939453 -0.125 13.25 C-0.11597656 11.98027344 -0.10695313 10.71054687 -0.09765625 9.40234375 C-0.07409005 6.26803907 -0.04118832 3.13411459 0 0 Z " fill="#4C525C" transform="translate(553,495)"/>
<path d="M0 0 C6.78376359 5.55035203 12.85522968 11.76442027 19 18 C18.34 18.66 17.68 19.32 17 20 C14.15456244 17.24136787 11.32585243 14.46618001 8.5 11.6875 C7.68917969 10.90181641 6.87835937 10.11613281 6.04296875 9.30664062 C5.27597656 8.54931641 4.50898437 7.79199219 3.71875 7.01171875 C3.00654297 6.31522217 2.29433594 5.61872559 1.56054688 4.90112305 C0 3 0 3 0 0 Z " fill="#0F1322" transform="translate(888,526)"/>
<path d="M0 0 C2.125 0.375 2.125 0.375 4 1 C2.38113585 2.67262717 0.7547271 4.33795537 -0.875 6 C-2.23238281 7.3921875 -2.23238281 7.3921875 -3.6171875 8.8125 C-6 11 -6 11 -8 11 C-8.66 12.32 -9.32 13.64 -10 15 C-10.99 14.67 -11.98 14.34 -13 14 C-11.2088872 12.04115757 -9.41713468 10.08290714 -7.625 8.125 C-7.11710938 7.56941406 -6.60921875 7.01382812 -6.0859375 6.44140625 C-4.0883974 4.25988219 -2.09183907 2.09183907 0 0 Z " fill="#161B28" transform="translate(955,384)"/>
<path d="M0 0 C9.24154826 -0.20871753 17.9400212 -0.14982548 27 2 C26.67 2.66 26.34 3.32 26 4 C24.33388095 4.042721 22.66617115 4.04063832 21 4 C20.67 3.67 20.34 3.34 20 3 C18.51361008 2.84344973 17.02050873 2.74933057 15.52734375 2.68359375 C14.17866211 2.62075195 14.17866211 2.62075195 12.80273438 2.55664062 C11.85720703 2.51732422 10.91167969 2.47800781 9.9375 2.4375 C8.98810547 2.39431641 8.03871094 2.35113281 7.06054688 2.30664062 C4.70718647 2.20020724 2.35371646 2.09818992 0 2 C0 1.34 0 0.68 0 0 Z " fill="#212531" transform="translate(635,390)"/>
<path d="M0 0 C0.33 0 0.66 0 1 0 C1.71511973 12.34858538 2.14420386 24.63051353 2 37 C1.67 37 1.34 37 1 37 C1 32.38 1 27.76 1 23 C0.34 23 -0.32 23 -1 23 C-0.67 15.41 -0.34 7.82 0 0 Z " fill="#6AB8A2" transform="translate(1002,279)"/>
<path d="M0 0 C8.25 0 16.5 0 25 0 C25 0.66 25 1.32 25 2 C19.28526309 3.09692266 14.31172002 2.8083698 8.5625 2.0625 C7.73556641 1.96259766 6.90863281 1.86269531 6.05664062 1.75976562 C4.03676471 1.51457838 2.01822582 1.25841833 0 1 C0 0.67 0 0.34 0 0 Z " fill="#171716" transform="translate(963,0)"/>
<path d="M0 0 C3.83412335 1.50626274 5.72845467 3.59268201 8 7 C10.57234768 13.12463734 9.85824073 18.58639019 9 25 C8.67 25 8.34 25 8 25 C7.93941406 24.10796875 7.87882812 23.2159375 7.81640625 22.296875 C7.73261719 21.12640625 7.64882812 19.9559375 7.5625 18.75 C7.48128906 17.58984375 7.40007812 16.4296875 7.31640625 15.234375 C6.85253249 10.49255438 6.52198938 8.11205661 2.9375 4.875 C1.27734375 3.3671875 1.27734375 3.3671875 0 2 C0 1.34 0 0.68 0 0 Z " fill="#0C131F" transform="translate(1085,510)"/>
<path d="M0 0 C7.59 0 15.18 0 23 0 C23 0.33 23 0.66 23 1 C20.2718186 1.36395805 17.54296095 1.71644812 14.8125 2.0625 C14.04357422 2.16626953 13.27464844 2.27003906 12.48242188 2.37695312 C4.89018957 3.32190908 4.89018957 3.32190908 1 2 C0.67 1.34 0.34 0.68 0 0 Z " fill="#171716" transform="translate(269,0)"/>
<path d="M0 0 C0.33 0 0.66 0 1 0 C1 7.26 1 14.52 1 22 C0.01 22.33 -0.98 22.66 -2 23 C-1.34 15.41 -0.68 7.82 0 0 Z " fill="#202020" transform="translate(1253,961)"/>
<path d="M0 0 C0.33 0 0.66 0 1 0 C1.33 6.6 1.66 13.2 2 20 C1.34 20 0.68 20 0 20 C0 21.65 0 23.3 0 25 C-0.33 25 -0.66 25 -1 25 C-1.12190678 16.60197746 -0.84327749 8.35748222 0 0 Z " fill="#5AB199" transform="translate(907,803)"/>
<path d="M0 0 C-0.99 0 -1.98 0 -3 0 C-3.33 0.66 -3.66 1.32 -4 2 C-5.32 1.67 -6.64 1.34 -8 1 C-8.33 1.99 -8.66 2.98 -9 4 C-14.61 4 -20.22 4 -26 4 C-26 3.67 -26 3.34 -26 3 C-21.38 2.67 -16.76 2.34 -12 2 C-12 1.34 -12 0.68 -12 0 C-3.42857143 -1.28571429 -3.42857143 -1.28571429 0 0 Z " fill="#303744" transform="translate(1036,528)"/>
<path d="M0 0 C3.78080393 1.26026798 4.77295425 2.93546534 7.1875 6.0625 C7.90292969 6.98160156 8.61835937 7.90070313 9.35546875 8.84765625 C10.16951172 9.91306641 10.16951172 9.91306641 11 11 C10.34 11.66 9.68 12.32 9 13 C8.51789062 12.43410156 8.03578125 11.86820313 7.5390625 11.28515625 C6.90742187 10.55167969 6.27578125 9.81820313 5.625 9.0625 C4.99851562 8.33160156 4.37203125 7.60070312 3.7265625 6.84765625 C2.12252286 4.91619094 2.12252286 4.91619094 0 4 C0 2.68 0 1.36 0 0 Z " fill="#171B2A" transform="translate(866,501)"/>
<path d="M0 0 C-0.66 1.32 -1.32 2.64 -2 4 C-2.99 4 -3.98 4 -5 4 C-5 4.66 -5 5.32 -5 6 C-8.6441774 8.4294516 -10.71241272 8.16179575 -15 8 C-12.68839505 5.68839505 -10.36966523 4.43821237 -7.5 2.875 C-6.03046875 2.06675781 -6.03046875 2.06675781 -4.53125 1.2421875 C-2 0 -2 0 0 0 Z " fill="#1E222F" transform="translate(310,550)"/>
<path d="M0 0 C0.99 0 1.98 0 3 0 C4.03307771 1.76371818 5.05112049 3.53625033 6.0625 5.3125 C6.63097656 6.29863281 7.19945312 7.28476562 7.78515625 8.30078125 C9 11 9 11 8 14 C4.17398376 9.76405345 2.13637096 5.21592698 0 0 Z " fill="#0D1525" transform="translate(562,552)"/>
<path d="M0 0 C0.99 0.33 1.98 0.66 3 1 C1.71700242 3.86207152 0.469364 6.0245088 -2 8 C-2.99 8 -3.98 8 -5 8 C-4.45773019 4.20411134 -2.79872437 2.52788007 0 0 Z " fill="#181A20" transform="translate(849,451)"/>
<path d="M0 0 C0.33 0 0.66 0 1 0 C1.33774332 2.22850277 1.6700187 4.45783467 2 6.6875 C2.185625 7.92886719 2.37125 9.17023437 2.5625 10.44921875 C2.92100411 13.35886371 3.08942256 16.07700022 3 19 C2.01 18.67 1.02 18.34 0 18 C0 12.06 0 6.12 0 0 Z " fill="#161516" transform="translate(0,957)"/>
<path d="M0 0 C0.66 0.33 1.32 0.66 2 1 C0.58791833 2.60820412 -0.82986036 4.21140708 -2.25 5.8125 C-3.03890625 6.70582031 -3.8278125 7.59914063 -4.640625 8.51953125 C-6.65879445 10.64128225 -8.59916705 12.34254423 -11 14 C-11.66 13.67 -12.32 13.34 -13 13 C-12.39671875 12.48050781 -11.7934375 11.96101562 -11.171875 11.42578125 C-7.07408883 7.85013235 -3.19314256 4.44263312 0 0 Z " fill="#E2E3E7" transform="translate(372,575)"/>
<path d="M0 0 C5.94 0.66 11.88 1.32 18 2 C18 2.33 18 2.66 18 3 C12.39 3 6.78 3 1 3 C0.67 2.01 0.34 1.02 0 0 Z " fill="#181818" transform="translate(264,1251)"/>
<path d="M0 0 C0.66 0.99 1.32 1.98 2 3 C0.76600937 4.36877116 -0.48780623 5.71969166 -1.75 7.0625 C-2.79414063 8.19365234 -2.79414063 8.19365234 -3.859375 9.34765625 C-6 11 -6 11 -8.265625 10.74609375 C-8.83796875 10.49988281 -9.4103125 10.25367188 -10 10 C-9.44570313 9.52949219 -8.89140625 9.05898438 -8.3203125 8.57421875 C-7.59585937 7.95160156 -6.87140625 7.32898438 -6.125 6.6875 C-5.40570313 6.07261719 -4.68640625 5.45773437 -3.9453125 4.82421875 C-1.80820669 2.9587676 -1.80820669 2.9587676 0 0 Z " fill="#1B1F2B" transform="translate(322,537)"/>
<path d="M0 0 C0.33 0 0.66 0 1 0 C1.37851209 5.93002267 0.10575375 10.47239641 -2 16 C-2.33 16 -2.66 16 -3 16 C-2.88487847 14.27014758 -2.75744323 12.54111249 -2.625 10.8125 C-2.55539062 9.84957031 -2.48578125 8.88664062 -2.4140625 7.89453125 C-1.99784147 4.98491062 -1.20125904 2.67109226 0 0 Z " fill="#212531" transform="translate(370,384)"/>
<path d="M0 0 C3.7952131 1.49097658 5.61042731 3.75700849 8 7 C7.34 8.32 6.68 9.64 6 11 C5.67 9.35 5.34 7.7 5 6 C4.01 6 3.02 6 2 6 C0 3 0 3 0 0 Z " fill="#1A1D24" transform="translate(908,546)"/>
<path d="M0 0 C0.66 0.66 1.32 1.32 2 2 C-1 5 -4 8 -7 11 C-7.33 10.01 -7.66 9.02 -8 8 C-5.46209694 4.54563194 -3.56854354 2.37902903 0 0 Z " fill="#131A28" transform="translate(176,322)"/>
<path d="M0 0 C0.66 0.66 1.32 1.32 2 2 C0.57140593 3.03325986 -0.86822383 4.05127634 -2.3125 5.0625 C-3.51326172 5.91521484 -3.51326172 5.91521484 -4.73828125 6.78515625 C-5.48464844 7.18605469 -6.23101563 7.58695312 -7 8 C-7.99 7.67 -8.98 7.34 -10 7 C-6.7 4.69 -3.4 2.38 0 0 Z " fill="#34A283" transform="translate(1095,301)"/>
<path d="M0 0 C0.99 0.66 1.98 1.32 3 2 C1.38405168 4.04119788 -0.2856382 6.04072937 -2 8 C-2.66 8 -3.32 8 -4 8 C-4 8.66 -4 9.32 -4 10 C-4.66 10 -5.32 10 -6 10 C-4.6302836 6.00499382 -2.74277578 3.19990508 0 0 Z " fill="#1A1F2B" transform="translate(761,270)"/>
<path d="M0 0 C0.66 0.66 1.32 1.32 2 2 C0.9171875 2.804375 0.9171875 2.804375 -0.1875 3.625 C-3.247842 6.2092888 -5.51220011 8.87248014 -8 12 C-8.66 11.67 -9.32 11.34 -10 11 C-6.7 7.37 -3.4 3.74 0 0 Z " fill="#141A29" transform="translate(876,350)"/>
<path d="M0 0 C0 0.33 0 0.66 0 1 C-1.0725 1.12375 -2.145 1.2475 -3.25 1.375 C-6.82037607 1.74322378 -6.82037607 1.74322378 -8.9375 3.125 C-12.33310779 4.56556088 -15.41285966 3.59785672 -19 3 C-19 2.67 -19 2.34 -19 2 C-12.56971459 0.67611771 -6.5705166 -0.24794402 0 0 Z " fill="#5EB69D" transform="translate(369,655)"/>
<path d="M0 0 C1.13199353 0.9080162 2.25532363 1.82683826 3.375 2.75 C4.00148438 3.26046875 4.62796875 3.7709375 5.2734375 4.296875 C7.08312318 6.08199481 8.00117455 7.67949644 9 10 C8.01 10.495 8.01 10.495 7 11 C6.59007812 10.50628906 6.18015625 10.01257813 5.7578125 9.50390625 C5.21898437 8.86324219 4.68015625 8.22257812 4.125 7.5625 C3.59132813 6.92441406 3.05765625 6.28632813 2.5078125 5.62890625 C1.0777243 3.89194996 1.0777243 3.89194996 -1 3 C-0.67 2.01 -0.34 1.02 0 0 Z " fill="#0E101C" transform="translate(1065,378)"/>
<path d="M0 0 C0.66 0 1.32 0 2 0 C0.12406994 5.8957802 -1.4400788 9.74407355 -6 14 C-4.7023817 8.70139194 -2.84984298 4.65474354 0 0 Z " fill="#D6EDE7" transform="translate(302,786)"/>
<path d="M0 0 C0.66 0.66 1.32 1.32 2 2 C0.71937515 3.7074998 -0.61767557 5.37373596 -2 7 C-2.66 7 -3.32 7 -4 7 C-4.33 7.66 -4.66 8.32 -5 9 C-5.33 8.01 -5.66 7.02 -6 6 C-4.02 4.02 -2.04 2.04 0 0 Z " fill="#E0DFE0" transform="translate(1156,1160)"/>
<path d="M0 0 C0.8125 1.625 0.8125 1.625 1 4 C-1.3125 7.25 -1.3125 7.25 -4 10 C-4.66 10 -5.32 10 -6 10 C-4.6302836 6.00499382 -2.74277578 3.19990508 0 0 Z " fill="#3FA88C" transform="translate(569,671)"/>
<path d="M0 0 C0.66 0.66 1.32 1.32 2 2 C1.96712417 4.72869407 1.43602229 7.2966618 1 10 C0.01 10.33 -0.98 10.66 -2 11 C-1 3.57142857 -1 3.57142857 0 0 Z " fill="#202531" transform="translate(559,465)"/>
<path d="M0 0 C-0.33 0.99 -0.66 1.98 -1 3 C-2.7421875 3.80078125 -2.7421875 3.80078125 -4.875 4.3125 C-5.92300781 4.58513672 -5.92300781 4.58513672 -6.9921875 4.86328125 C-9 5 -9 5 -12 3 C-10.56445975 2.49440092 -9.1264798 1.9957251 -7.6875 1.5 C-6.88699219 1.2215625 -6.08648437 0.943125 -5.26171875 0.65625 C-3 0 -3 0 0 0 Z " fill="#151925" transform="translate(210,308)"/>
<path d="M0 0 C0.66 0.99 1.32 1.98 2 3 C-0.31 5.31 -2.62 7.62 -5 10 C-5.66 9.34 -6.32 8.68 -7 8 C-4.69 5.36 -2.38 2.72 0 0 Z " fill="#36A586" transform="translate(437,932)"/>
<path d="M0 0 C-9.41002278 4.59225513 -9.41002278 4.59225513 -14 4 C-9.68030697 0.34487513 -5.55645743 -1.67651733 0 0 Z " fill="#46AB8F" transform="translate(590,663)"/>
<path d="M0 0 C0.33 0.99 0.66 1.98 1 3 C-1.31 5.31 -3.62 7.62 -6 10 C-6.33 9.01 -6.66 8.02 -7 7 C-4.69 4.69 -2.38 2.38 0 0 Z " fill="#1C212D" transform="translate(812,423)"/>
<path d="M0 0 C0.99 0.33 1.98 0.66 3 1 C2.50168276 4.68754757 1.89932357 6.60490662 -1 9 C-2.0326802 6.21176345 -2.04509293 5.1322726 -1.0625 2.25 C-0.711875 1.5075 -0.36125 0.765 0 0 Z " fill="#EDEEF0" transform="translate(304,395)"/>
<path d="M0 0 C0.66 0.33 1.32 0.66 2 1 C0.90241493 1.84198307 -0.20335317 2.67330671 -1.3125 3.5 C-1.92738281 3.9640625 -2.54226563 4.428125 -3.17578125 4.90625 C-5 6 -5 6 -8 6 C-8.33 6.66 -8.66 7.32 -9 8 C-9 7.01 -9 6.02 -9 5 C-7.54735962 4.1361871 -6.0876837 3.28419546 -4.625 2.4375 C-3.40683594 1.72400391 -3.40683594 1.72400391 -2.1640625 0.99609375 C-1.44992187 0.66738281 -0.73578125 0.33867188 0 0 Z " fill="#DEF0ED" transform="translate(345,744)"/>
<path d="M0 0 C0.66 0.33 1.32 0.66 2 1 C-0.31 3.64 -2.62 6.28 -5 9 C-5.66 8.67 -6.32 8.34 -7 8 C-4.69 5.36 -2.38 2.72 0 0 Z " fill="#339F82" transform="translate(834,662)"/>
<path d="M0 0 C0.66 0.33 1.32 0.66 2 1 C-0.38957269 4.24299151 -2.2047869 6.50902342 -6 8 C-6 5 -6 5 -4.6875 3.61328125 C-3.125 2.40885417 -1.5625 1.20442708 0 0 Z " fill="#36A485" transform="translate(1073,317)"/>
<path d="M0 0 C1.13643966 3.40931897 0.86747764 4.00335456 -0.4375 7.1875 C-0.86869141 8.26064453 -0.86869141 8.26064453 -1.30859375 9.35546875 C-1.53675781 9.89816406 -1.76492188 10.44085937 -2 11 C-2.33 11 -2.66 11 -3 11 C-2.88590407 9.54077307 -2.75834456 8.08259402 -2.625 6.625 C-2.55539062 5.81289063 -2.48578125 5.00078125 -2.4140625 4.1640625 C-2 2 -2 2 0 0 Z " fill="#060912" transform="translate(717,522)"/>
<path d="M0 0 C0.99 0 1.98 0 3 0 C2.67 1.65 2.34 3.3 2 5 C2.99 5 3.98 5 5 5 C4.67 6.32 4.34 7.64 4 9 C1.47740939 7.02579865 1.0070192 6.03254358 0.3125 2.8125 C0.209375 1.884375 0.10625 0.95625 0 0 Z " fill="#2C3241" transform="translate(922,525)"/>
<path d="M0 0 C-3.4766338 2.14336161 -6.21229195 2.21277626 -10.25 2.125 C-11.32765625 2.10695313 -12.4053125 2.08890625 -13.515625 2.0703125 C-14.33546875 2.04710937 -15.1553125 2.02390625 -16 2 C-16 1.67 -16 1.34 -16 1 C-14.0852312 0.63571223 -12.16807707 0.28394694 -10.25 -0.0625 C-9.18265625 -0.25972656 -8.1153125 -0.45695312 -7.015625 -0.66015625 C-4.25228095 -0.97156937 -2.59053383 -0.8991416 0 0 Z " fill="#B5B7BE" transform="translate(1013,496)"/>
<path d="M0 0 C-0.99 0 -1.98 0 -3 0 C-3 0.66 -3 1.32 -3 2 C-7.33273814 2.92844389 -10.66726186 2.92844389 -15 2 C-15 1.67 -15 1.34 -15 1 C-13.25215171 0.63536268 -11.50159498 0.2836922 -9.75 -0.0625 C-8.28820312 -0.35833984 -8.28820312 -0.35833984 -6.796875 -0.66015625 C-4.131881 -0.98397535 -2.51128277 -0.85503199 0 0 Z " fill="#434752" transform="translate(996,456)"/>
<path d="M0 0 C0.66 0.99 1.32 1.98 2 3 C0.02 5.64 -1.96 8.28 -4 11 C-4 7.80389448 -3.45328458 6.58282374 -2 3.8125 C-1.62875 3.09707031 -1.2575 2.38164062 -0.875 1.64453125 C-0.441875 0.83048828 -0.441875 0.83048828 0 0 Z " fill="#E1E3E6" transform="translate(363,410)"/>
<path d="M0 0 C0.33 0.66 0.66 1.32 1 2 C-1.31 4.97 -3.62 7.94 -6 11 C-6.66 10.67 -7.32 10.34 -8 10 C-5.36 6.7 -2.72 3.4 0 0 Z " fill="#222735" transform="translate(846,384)"/>
<path d="M0 0 C0.66 0.99 1.32 1.98 2 3 C-0.64 5.31 -3.28 7.62 -6 10 C-6.66 9.67 -7.32 9.34 -8 9 C-5.36 6.03 -2.72 3.06 0 0 Z " fill="#E1E1E2" transform="translate(86,107)"/>
<path d="M0 0 C0.99 0 1.98 0 3 0 C1.25 6.75 1.25 6.75 -1 9 C-1.625 7.1875 -1.625 7.1875 -2 5 C-1.34 4.01 -0.68 3.02 0 2 C0 1.34 0 0.68 0 0 Z " fill="#E0E2E4" transform="translate(327,522)"/>
<path d="M0 0 C0.66 0 1.32 0 2 0 C0.80100302 3.0831351 -0.47700477 6.06279492 -2 9 C-2.66 9 -3.32 9 -4 9 C-2.94124926 5.59687262 -1.99097846 2.98646769 0 0 Z " fill="#292C38" transform="translate(933,411)"/>
<path d="M0 0 C0.99 0.33 1.98 0.66 3 1 C1.02 3.97 1.02 3.97 -1 7 C-1.66 6.67 -2.32 6.34 -3 6 C-1.125 1.125 -1.125 1.125 0 0 Z " fill="#161B29" transform="translate(937,405)"/>
<path d="M0 0 C0.33 0.99 0.66 1.98 1 3 C-0.25 4.5 -0.25 4.5 -2 6 C-3.32 6 -4.64 6 -6 6 C-6 5.34 -6 4.68 -6 4 C-4.03852126 2.61061923 -2.03833424 1.2739589 0 0 Z " fill="#161B27" transform="translate(967,375)"/>
<path d="M0 0 C0.6875 1.625 0.6875 1.625 1 4 C-0.4375 7.25 -0.4375 7.25 -2 10 C-2.66 10 -3.32 10 -4 10 C-2.8905928 6.51329166 -1.73662334 3.22515763 0 0 Z " fill="#D2D4D8" transform="translate(487,475)"/>
<path d="M0 0 C0.66 0.66 1.32 1.32 2 2 C2.99 2.33 3.98 2.66 5 3 C3.35 4.65 1.7 6.3 0 8 C0 5.36 0 2.72 0 0 Z " fill="#BBBCC1" transform="translate(469,418)"/>
<path d="M0 0 C-2.17288535 2.17288535 -3.01029519 2.64827002 -6 3 C-8.25 2.0625 -8.25 2.0625 -10 1 C-3.71428571 -1.42857143 -3.71428571 -1.42857143 0 0 Z " fill="#1D2231" transform="translate(516,395)"/>
<path d="M0 0 C3.36720387 1.39332574 4.9859524 2.9789286 7 6 C4 6 4 6 1.8125 4.125 C0 2 0 2 0 0 Z " fill="#1E2029" transform="translate(1085,510)"/>
<path d="M0 0 C0.99 0.33 1.98 0.66 3 1 C2.01 2.485 2.01 2.485 1 4 C0.34 4 -0.32 4 -1 4 C-1.33 4.99 -1.66 5.98 -2 7 C-2.66 6.34 -3.32 5.68 -4 5 C-2.68 3.35 -1.36 1.7 0 0 Z " fill="#111827" transform="translate(583,420)"/>
<path d="M0 0 C0.66 0.33 1.32 0.66 2 1 C0.35 2.98 -1.3 4.96 -3 7 C-3.66 6.34 -4.32 5.68 -5 5 C-3.35 3.35 -1.7 1.7 0 0 Z " fill="#131313" transform="translate(1145,1174)"/>
<path d="M0 0 C0 0.66 0 1.32 0 2 C-6.45 4.23269231 -6.45 4.23269231 -9.234375 3.0546875 C-9.81703125 2.70664062 -10.3996875 2.35859375 -11 2 C-9.5422647 1.664061 -8.08378894 1.33133376 -6.625 1 C-5.40683594 0.7215625 -5.40683594 0.7215625 -4.1640625 0.4375 C-2 0 -2 0 0 0 Z " fill="#44AA8D" transform="translate(408,953)"/>
<path d="M0 0 C0.66 0.33 1.32 0.66 2 1 C2 2.98 2 4.96 2 7 C1.01 7 0.02 7 -1 7 C-0.67 4.69 -0.34 2.38 0 0 Z " fill="#D6EBE6" transform="translate(520,943)"/>
<path d="M0 0 C0 0.33 0 0.66 0 1 C-1.41199578 1.39222105 -2.82992764 1.76311059 -4.25 2.125 C-5.03890625 2.33382812 -5.8278125 2.54265625 -6.640625 2.7578125 C-9.4203071 3.04314411 -10.65887549 2.44977894 -13 1 C-8.59085217 -0.10228696 -4.51617599 -0.07654536 0 0 Z " fill="#67BBA4" transform="translate(861,655)"/>
<path d="M0 0 C0.33 0 0.66 0 1 0 C1.33 2.97 1.66 5.94 2 9 C1.67 8.34 1.34 7.68 1 7 C0.01 7 -0.98 7 -2 7 C-1.42415568 4.61435923 -0.77772405 2.33317216 0 0 Z " fill="#0F131B" transform="translate(916,562)"/>
<path d="M0 0 C1.98 1.65 3.96 3.3 6 5 C5.34 5.66 4.68 6.32 4 7 C2.35 5.02 0.7 3.04 -1 1 C-0.67 0.67 -0.34 0.34 0 0 Z " fill="#F0F1F3" transform="translate(939,556)"/>
<path d="M0 0 C0.66 0.33 1.32 0.66 2 1 C1.49396008 3.16874252 1.00016187 4.99967627 0 7 C-0.66 7 -1.32 7 -2 7 C-1.125 1.125 -1.125 1.125 0 0 Z " fill="#181B24" transform="translate(331,520)"/>
<path d="M0 0 C0.33 0 0.66 0 1 0 C2.0070238 5.03511899 1.97387813 8.23947038 0 13 C-0.33 13 -0.66 13 -1 13 C-1.07654536 8.48382401 -1.10228696 4.40914783 0 0 Z " fill="#AFB2B7" transform="translate(479,496)"/>
<path d="M0 0 C0.33 0 0.66 0 1 0 C2.0070238 5.03511899 1.97387813 8.23947038 0 13 C-0.33 13 -0.66 13 -1 13 C-1.07654536 8.48382401 -1.10228696 4.40914783 0 0 Z " fill="#595D66" transform="translate(917,450)"/>
<path d="M0 0 C2.69082872 0.17635452 5.32851446 0.61835921 8 1 C5.38058783 2.74627478 3.96175123 3.38722388 1 4 C1 3.34 1 2.68 1 2 C0.34 1.67 -0.32 1.34 -1 1 C-0.67 0.67 -0.34 0.34 0 0 Z " fill="#060A12" transform="translate(511,449)"/>
<path d="M0 0 C0.66 0.66 1.32 1.32 2 2 C-0.97 4.475 -0.97 4.475 -4 7 C-4 4 -4 4 -2 1.8125 C-1.34 1.214375 -0.68 0.61625 0 0 Z " fill="#0E1521" transform="translate(479,415)"/>
<path d="M0 0 C3.96 1.98 3.96 1.98 8 4 C7.34 4.66 6.68 5.32 6 6 C3.96166576 4.7260411 1.96147874 3.38938077 0 2 C0 1.34 0 0.68 0 0 Z " fill="#0F1524" transform="translate(1051,368)"/>
<path d="M0 0 C-1.39332574 3.36720387 -2.9789286 4.9859524 -6 7 C-5.37162381 3.35541809 -4.14650034 0 0 0 Z " fill="#161D2C" transform="translate(863,367)"/>
<path d="M0 0 C0 0.66 0 1.32 0 2 C-2.875 2.625 -2.875 2.625 -6 3 C-6.66 2.34 -7.32 1.68 -8 1 C-5.07175348 0.02391783 -3.04386724 -0.08226668 0 0 Z " fill="#19202D" transform="translate(992,365)"/>
<path d="M0 0 C0.66 0.66 1.32 1.32 2 2 C-0.97 4.475 -0.97 4.475 -4 7 C-4 4 -4 4 -2 1.8125 C-1.34 1.214375 -0.68 0.61625 0 0 Z " fill="#09090A" transform="translate(100,90)"/>
</svg>
